HIERARCHY
ROOT Hips
{
	OFFSET 0.000000 0.000000 0.000000
	CHANNELS 6 Xposition Yposition Zposition Zrotation Yrotation Xrotation 
	JOINT LHipJoint
	{
		OFFSET 0.000000 0.000000 0.000000
		CHANNELS 3 Zrotation Yrotation Xrotation
		JOINT LeftUpLeg
		{
			OFFSET 1.363060 -1.794630 0.839290
			CHANNELS 3 Zrotation Yrotation Xrotation
			JOINT LeftLeg
			{
				OFFSET 2.448110 -6.726130 0.000000
				CHANNELS 3 Zrotation Yrotation Xrotation
				JOINT LeftFoot
				{
					OFFSET 2.562200 -7.039590 0.000000
					CHANNELS 3 Zrotation Yrotation Xrotation
					JOINT LeftToeBase
					{
						OFFSET 0.157640 -0.433110 2.322550
						CHANNELS 3 Zrotation Yrotation Xrotation
						End Site
						{
							OFFSET 0.000000 0.000000 0.000000
						}
					}
				}
			}
		}
	}
	JOINT RHipJoint
	{
		OFFSET 0.000000 0.000000 0.000000
		CHANNELS 3 Zrotation Yrotation Xrotation
		JOINT RightUpLeg
		{
			OFFSET -1.305520 -1.794630 0.839290
			CHANNELS 3 Zrotation Yrotation Xrotation
			JOINT RightLeg
			{
				OFFSET -2.542530 -6.985550 0.000000
				CHANNELS 3 Zrotation Yrotation Xrotation
				JOINT RightFoot
				{
					OFFSET -2.568260 -7.056230 0.000000
					CHANNELS 3 Zrotation Yrotation Xrotation
					JOINT RightToeBase
					{
						OFFSET -0.164730 -0.452590 2.363150
						CHANNELS 3 Zrotation Yrotation Xrotation
						End Site
						{
							OFFSET 0.000000 0.000000 0.000000
						}
					}
				}
			}
		}
	}
}
MOTION
Frames: 33
Frame Time: 0.008333
-10.942533 16.471155 -0.768941 64.361663 87.009923 100.151454 -12.016507 0.785101 -5.316947 -13.578297 11.803866 -38.165846 -0.977561 3.701095 57.177337 0.375750 0.144227 -1.461539 0.012801 -0.000000 -55.474100 7.041102 -0.207939 0.071439 18.727998 3.065195 -63.072361 3.927490 -2.775420 34.535256 -1.858798 -2.944413 -15.595464 0.303400 0.000000 -17.825900
-10.777575 16.393453 -0.746178 73.112813 87.116795 108.801240 -11.937651 0.709863 -5.370451 -13.305770 11.804500 -38.863412 -0.768027 3.855981 59.731306 0.562402 1.732567 -2.600491 0.117800 -0.000000 -52.237700 7.144784 -0.134078 0.033527 18.399547 3.168363 -63.249180 3.727148 -2.980119 36.619370 -2.101518 -3.435432 -17.316872 0.547700 0.000000 -12.504400
-10.617635 16.313117 -0.725309 81.889915 87.209817 117.453123 -11.857969 0.622836 -5.431451 -12.969740 11.759365 -39.617480 -0.552257 4.029861 62.392509 0.766378 3.362059 -3.905938 0.164201 0.000000 -48.859200 7.254702 -0.032745 -0.058855 18.150092 3.222094 -63.505799 3.521742 -3.214245 38.976023 -2.355001 -3.949102 -19.178106 0.843799 0.000000 -7.758900
-10.462701 16.232127 -0.706657 90.645138 87.301769 126.055088 -11.781346 0.526647 -5.499713 -12.559776 11.673008 -40.408853 -0.330583 4.222149 65.110547 0.976603 4.939568 -5.305215 0.138401 0.000000 -45.463000 7.371105 0.090717 -0.209426 18.006413 3.208983 -63.782008 3.317175 -3.464563 41.492494 -2.607466 -4.481810 -21.067624 1.180400 0.000000 -3.939700
-10.312673 16.152572 -0.690614 99.389507 87.414099 134.609932 -11.709596 0.426706 -5.576621 -12.063042 11.558800 -41.213131 -0.103394 4.432730 67.829471 1.180309 6.383400 -6.714027 0.043300 -0.000000 -42.353000 7.493839 0.231529 -0.421118 17.995462 3.117606 -64.000561 3.121693 -3.715229 44.038914 -2.846274 -5.017389 -22.890745 1.542500 0.000000 -1.255700
-10.167012 16.076042 -0.677229 108.156652 87.566175 143.152937 -11.643851 0.332906 -5.660136 -11.480469 11.429077 -42.023129 0.127557 4.663275 70.504741 1.364540 7.625793 -8.076968 -0.107101 -0.000000 -39.594300 7.621061 0.387679 -0.688585 18.127644 2.955001 -64.110274 2.941893 -3.951718 46.516175 -3.064092 -5.534157 -24.609824 -178.081300 0.000000 -0.524900
-10.024982 16.003884 -0.666451 116.935371 87.774480 151.673840 -11.589637 0.256384 -5.747849 -10.823890 11.298456 -42.829946 0.359658 4.916264 73.092862 1.518720 8.621356 -9.354397 -0.291500 0.000000 -37.219900 7.746564 0.557944 -1.005436 18.399100 2.729921 -64.064757 2.781925 -4.159775 48.836335 -3.253827 -6.005728 -26.187586 -177.706700 0.000000 -1.498400
-9.885660 15.937084 -0.657884 125.631592 88.044716 160.079978 -11.559561 0.204015 -5.836377 -10.117434 11.179667 -43.625399 0.590502 5.192995 75.556228 1.636116 9.349414 -10.521142 -0.486800 -0.000000 -35.250600 7.857155 0.737826 -1.363338 18.788786 2.450571 -63.833445 2.643403 -4.327424 50.936845 -3.410725 -6.404239 -27.605174 -177.349900 -0.000000 -1.781300
-9.748111 15.876238 -0.650991 134.072196 88.367611 168.198886 -11.570846 0.172641 -5.921300 -9.394873 11.077376 -44.400120 0.818964 5.489670 77.865305 1.714602 9.814472 -11.563363 -0.672900 -0.000000 -33.708900 7.934818 0.914893 -1.751698 19.260755 2.119198 -63.405352 2.526450 -4.447977 52.781786 -3.532759 -6.705338 -28.861459 -177.025500 -0.000000 -1.504400
-9.611295 15.821535 -0.644942 141.997847 88.716055 175.772703 -11.635871 0.147395 -5.998318 -8.694324 10.985801 -45.146743 1.044924 5.794649 80.003541 1.756479 10.042243 -12.486509 -0.836699 -0.000000 -32.514500 7.965129 1.068314 -2.155965 19.768250 1.733623 -62.791362 2.430997 -4.522807 54.357611 -3.620880 -6.893833 -29.970581 -176.744700 0.000000 -0.811001
-9.474247 15.772905 -0.638837 149.139276 89.055834 -177.465195 -11.750990 0.108554 -6.064319 -8.048600 10.891379 -45.862509 1.268617 6.090004 81.966073 1.767870 10.076692 -13.301359 -0.971900 0.000000 -31.591500 7.947748 1.176823 -2.559379 20.266179 1.291429 -62.017784 2.358003 -4.561400 55.667944 -3.678710 -6.966746 -30.958961 3.486900 0.000000 -0.131700
-9.336098 15.730034 -0.631707 155.268105 89.360671 -171.736556 -11.894356 0.042439 -6.118137 -7.481581 10.781882 -46.553576 1.488878 6.357952 83.756270 1.757534 9.974129 -14.022090 -1.078500 -0.000000 -30.856400 7.899171 1.229603 -2.944598 20.717829 0.799802 -61.120401 2.308442 -4.577003 56.729683 -3.711795 -6.933455 -31.858017 3.669500 -0.000001 -1.147100
-9.196241 15.692577 -0.622780 160.282406 89.625112 -167.133930 -12.036657 -0.053120 -6.160518 -7.005962 10.652751 -47.234139 1.702844 6.587775 85.381354 1.735009 9.794008 -14.662470 -1.160899 -0.000000 -30.240500 7.843551 1.230975 -3.297863 21.098662 0.278621 -60.132954 2.281699 -4.580424 57.568116 -3.727215 -6.814784 -32.698175 3.808899 0.000000 -2.075000
-9.053902 15.660127 -0.611119 163.932539 89.847122 -163.889056 -12.144708 -0.171499 -6.189008 -6.639555 10.495116 -47.931608 1.906653 6.771484 86.849762 1.709816 9.593884 -15.237855 -1.226801 -0.000000 -29.635699 7.809831 1.195231 -3.603204 21.384253 -0.243407 -59.103854 2.274659 -4.581108 58.220856 -3.732929 -6.640886 -33.505282 3.915400 -0.000000 -2.792300
-8.909032 15.632566 -0.596581 -13.707428 89.951248 18.083556 -12.203052 -0.303140 -6.205758 -6.378829 10.317398 -48.663983 2.096570 6.912402 88.166518 1.688990 9.417655 -15.754577 -1.282900 0.000000 -29.022801 7.811024 1.140006 -3.856446 21.572076 -0.733107 -58.054485 2.282554 -4.580422 58.717526 -3.736490 -6.445458 -34.292206 4.001400 0.000000 -3.244100
-8.761480 15.609829 -0.579008 -12.815072 89.762369 18.620914 -12.198127 -0.440624 -6.209249 -6.224369 10.116276 -49.453566 2.269531 7.011193 89.335997 1.677578 9.295400 -16.220276 -1.335800 -0.000000 -28.355400 7.858825 1.079693 -4.051703 21.659216 -1.161803 -57.015940 2.300104 -4.580645 59.088661 -3.744644 -6.264815 -35.062316 4.079900 0.000000 -3.436300
-8.611268 15.592116 -0.558563 -13.670811 89.586869 17.453934 -12.122753 -0.581049 -6.198708 -6.166681 9.886880 -50.313911 2.423040 7.068167 90.359385 1.677625 9.238397 -16.639602 -1.389400 -0.000000 -27.622300 7.959044 1.022336 -4.187623 21.654205 -1.509455 -56.007050 2.323584 -4.583384 59.352647 -3.762072 -6.130781 -35.808700 4.162800 0.000000 -3.423500
-8.458550 15.579865 -0.535741 -16.856190 89.446064 14.007208 -11.972369 -0.730174 -6.173773 -6.187103 9.617196 -51.248589 2.555253 7.079144 91.235948 1.688628 9.241909 -17.015799 -1.444899 -0.000000 -26.832900 8.114830 0.965867 -4.265864 21.573911 -1.770329 -55.036692 2.352324 -4.592559 59.512153 -3.790769 -6.068735 -36.513367 4.259000 0.000000 -3.317600
-8.303641 15.573370 -0.511035 -23.805561 89.410832 6.849683 -11.744756 -0.916754 -6.134814 -6.267658 9.275866 -52.251682 2.665227 7.026916 91.969901 1.708188 9.288939 -17.357298 -1.501900 -0.000000 -25.987700 8.326320 0.886063 -4.286994 21.433463 -1.956558 -54.119045 2.390768 -4.621888 59.562627 -3.831105 -6.097661 -37.162906 4.375300 -0.000000 -3.187000
-8.146661 15.573448 -0.485185 -37.144932 89.637165 -6.654467 -11.497932 -1.224276 -6.077058 -6.408966 8.798163 -53.285320 2.751422 6.884703 92.555764 1.732360 9.357082 -17.666898 -1.557400 -0.000000 -25.137400 8.535038 0.703222 -4.257274 21.226984 -2.125034 -53.266388 2.447068 -4.692089 59.478128 -3.880475 -6.222833 -37.734187 4.510300 -0.000000 -3.178301
-7.987814 15.580620 -0.458816 119.902334 89.731750 150.266523 -11.459605 -1.730407 -5.977646 -6.706114 8.141499 -54.307373 2.806700 6.700971 92.951040 1.755844 9.420131 -17.950880 -1.609300 0.000000 -24.303100 8.523119 0.338352 -4.207571 20.860569 -2.324446 -52.488277 2.498768 -4.775022 59.279595 -3.940212 -6.430467 -38.212707 4.660001 -0.000000 -3.379500
-7.827132 15.595467 -0.432481 92.036782 88.996578 122.331981 -11.677866 -2.151293 -5.825696 -7.171229 7.508863 -55.372189 2.818722 6.665405 93.071163 1.775013 9.449859 -18.213959 -1.655900 -0.000001 -23.519200 8.256345 0.046475 -4.192429 20.339878 -2.417893 -51.646409 2.486273 -4.729777 59.009698 -4.009312 -6.675623 -38.553399 4.815200 0.000000 -3.864900
-7.664631 15.618353 -0.406630 71.676737 88.468326 101.955630 -11.762166 -2.307406 -5.662166 -7.583059 6.979713 -56.520017 2.794598 6.719013 92.958005 1.791408 9.438512 -18.472309 -1.697100 -0.000001 -22.806300 8.109958 0.001557 -4.189759 19.878870 -2.342506 -50.649839 2.447699 -4.583522 58.582868 -4.074214 -6.947649 -38.720941 4.964299 0.000000 -4.668501
-7.500056 15.649687 -0.381488 60.757043 88.126269 91.045252 -11.668772 -2.380881 -5.494199 -7.903598 6.409340 -57.677880 2.740885 6.732103 92.653546 1.806819 9.398459 -18.733684 -1.734399 0.000000 -22.197200 8.119780 0.034626 -4.174901 19.500034 -2.227864 -49.548947 2.429044 -4.429801 57.933400 -4.126478 -7.242991 -38.720638 5.094300 0.000000 -5.756899
-7.333445 15.689334 -0.357266 55.795886 87.917421 86.110451 -11.493264 -2.457896 -5.313423 -8.173300 5.744020 -58.806530 2.657880 6.692747 92.153702 1.823551 9.346615 -19.004359 -1.771500 0.000001 -21.674000 8.193169 0.061860 -4.153594 19.159905 -2.129643 -48.369625 2.429966 -4.281583 57.064441 -4.163491 -7.550092 -38.542759 5.193900 -0.000000 -7.221500
-7.164392 15.737486 -0.333939 54.531920 87.809827 84.881268 -11.279424 -2.544608 -5.116005 -8.416351 4.984599 -59.882629 2.545647 6.612129 91.442612 1.846144 9.312042 -19.275250 -1.812300 -0.000000 -21.268700 8.290299 0.073508 -4.135731 18.836884 -2.073407 -47.109842 2.445713 -4.132429 55.990784 -4.183213 -7.846138 -38.196487 5.253500 0.000000 -8.866999
-6.992774 15.793877 -0.311467 55.860773 87.784248 86.250052 -11.039763 -2.631009 -4.902240 -8.643419 4.145300 -60.897804 2.406472 6.499339 90.513949 1.880135 9.327508 -19.537168 -1.861400 -0.000000 -20.966800 8.401630 0.076878 -4.125704 18.523607 -2.063906 -45.776735 2.470343 -3.978063 54.739601 -4.183335 -8.119112 -37.676917 5.265299 0.000000 -10.638700
-6.818473 15.858019 -0.289787 59.193124 87.820763 89.633345 -10.776034 -2.704725 -4.671547 -8.862847 3.243680 -61.861788 2.244646 6.361172 89.367312 1.931351 9.426403 -19.771852 -1.922100 -0.000000 -20.747800 8.527568 0.081601 -4.121454 18.217830 -2.093274 -44.399334 2.496513 -3.817255 53.353149 -4.162153 -8.365723 -36.970782 5.224000 -0.000000 -12.534800
-6.641483 15.929679 -0.268828 64.152831 87.891812 94.651672 -10.489496 -2.751660 -4.427158 -9.086588 2.303131 -62.766439 2.063741 6.203081 87.995901 2.004493 9.636224 -19.956751 -1.995500 -0.000000 -20.588300 8.671153 0.097458 -4.125683 17.912350 -2.168271 -42.999765 2.517911 -3.650959 51.880178 -4.115952 -8.574479 -36.066046 5.121000 0.000000 -14.539401
-6.461844 16.008286 -0.248599 70.235997 87.964319 100.807931 -10.186142 -2.761844 -4.169766 -9.328183 1.346767 -63.619291 1.868153 6.031482 86.397063 2.102466 9.972925 -20.064436 -2.078800 0.000000 -20.453401 8.829871 0.129487 -4.136951 17.601050 -2.286119 -41.621471 2.526685 -3.482134 50.382911 -4.041684 -8.738621 -34.942839 4.949300 0.000000 -16.684600
-6.279769 16.093437 -0.229177 76.809548 88.003042 107.470074 -9.877455 -2.731429 -3.901918 -9.605710 0.396470 -64.414334 1.660741 5.851317 84.562906 2.225342 10.436752 -20.066107 -2.164000 -0.000001 -20.312900 8.996763 0.176499 -4.157816 17.271710 -2.459599 -40.305790 2.516871 -3.317075 48.923599 -3.933463 -8.842138 -33.571056 4.696900 0.000000 -19.090800
-6.095444 16.184319 -0.210856 83.188782 87.990015 113.966153 -9.577274 -2.667784 -3.622746 -9.925574 -0.531377 -65.162423 1.444960 5.665590 82.492920 2.370091 11.009515 -19.932746 -2.236900 0.000000 -20.135601 9.160073 0.227566 -4.183719 16.923092 -2.683133 -39.107413 2.483080 -3.164498 47.557134 -3.787203 -8.881991 -31.900004 4.354200 0.000000 -22.082900
-5.909252 16.280606 -0.193710 88.822766 87.906985 119.735751 -9.294582 -2.577469 -3.339093 -10.309070 -1.422759 -65.830511 1.220723 5.472767 80.175072 2.530426 11.658112 -19.639033 -2.279600 0.000000 -19.923000 9.316750 0.274020 -4.223805 16.540443 -2.997967 -38.052300 2.428045 -3.036579 46.332808 -3.595672 -8.823444 -29.919187 3.913000 0.000000 -25.587200
